<svg xmlns="http://www.w3.org/2000/svg" width="665" height="375" viewBox="0 0 665 375" version="1.1"><path d="M 370 86.858 C 358.554 89.797, 351.380 94.951, 350.091 101.159 C 349.214 105.385, 350.526 114.064, 352.217 115.214 C 354.194 116.560, 364.076 115.578, 368.122 113.634 C 373.379 111.108, 375.457 105.873, 375.481 95.098 C 375.501 85.900, 375.243 85.511, 370 86.858 M 289.384 89.605 C 288.358 93.696, 289.764 104.912, 291.723 108.256 C 294.804 113.517, 298.334 115.397, 305.939 115.827 C 312.325 116.188, 312.904 116.048, 314.071 113.867 C 314.762 112.575, 315.367 108.712, 315.414 105.281 C 315.495 99.411, 315.289 98.832, 311.921 95.460 C 309.687 93.222, 305.820 90.961, 301.626 89.438 C 292.762 86.220, 290.225 86.255, 289.384 89.605 M 261.327 118.373 C 262.208 124.799, 265.552 132.196, 269.120 135.615 C 271.740 138.125, 272.984 138.511, 279.531 138.841 C 286.924 139.215, 286.973 139.200, 288.071 136.358 C 288.679 134.786, 288.986 131.134, 288.755 128.242 C 288.025 119.120, 282.913 115.540, 268.953 114.376 L 260.685 113.686 261.327 118.373 M 390.429 114.971 C 380.448 116.481, 376.768 120.282, 376.168 129.703 C 375.651 137.821, 376.777 139, 385.043 139 C 389.259 139, 391.556 138.426, 394.040 136.750 C 398.131 133.990, 402.655 125.169, 403.144 119 L 403.500 114.500 399.500 114.352 C 397.300 114.271, 393.218 114.549, 390.429 114.971 M 290.330 117.581 C 289.365 120.098, 290.690 132.038, 292.539 137.473 C 293.469 140.208, 295.304 144.025, 296.615 145.955 C 299.543 150.263, 299.746 152.076, 296.941 148.861 L 294.881 146.500 296.550 149.241 C 297.468 150.749, 298.551 151.778, 298.956 151.527 C 299.362 151.276, 300.975 152.408, 302.540 154.042 C 306.618 158.298, 315.470 160.545, 316.596 157.610 C 316.889 156.846, 314.622 150.699, 311.558 143.950 C 308.494 137.201, 306.199 131.467, 306.459 131.208 C 306.718 130.949, 308.455 134.058, 310.318 138.118 C 319.210 157.491, 319.537 157.864, 323.164 152.770 C 326.574 147.980, 326.882 139.491, 323.864 133.419 C 321.549 128.763, 316.023 123.781, 311.015 121.836 C 309.648 121.305, 307.173 120.231, 305.515 119.449 C 303.162 118.340, 293.542 116, 291.332 116 C 291.115 116, 290.664 116.712, 290.330 117.581 M 366.500 117.020 C 350.523 120.218, 339.321 129.687, 337.471 141.557 C 336.500 147.786, 341.783 157.488, 345.048 155.471 C 345.693 155.072, 348.849 149.178, 352.060 142.373 C 355.272 135.568, 358.136 130, 358.425 130 C 359.032 130, 357.263 134.932, 356.106 136.467 C 355.678 137.035, 354.045 140.650, 352.478 144.500 C 350.911 148.350, 349.243 152.019, 348.772 152.653 C 348.301 153.287, 347.540 155.117, 347.081 156.719 L 346.245 159.632 351.678 158.895 C 357.699 158.078, 361.153 156.223, 363.595 152.495 C 364.488 151.132, 365.620 150.265, 366.109 150.568 C 366.599 150.870, 367.052 150.529, 367.115 149.809 C 367.179 149.089, 367.291 148.050, 367.365 147.500 C 367.439 146.950, 368.805 143.800, 370.401 140.500 C 373.352 134.398, 375.903 120.796, 374.691 117.636 C 374.015 115.875, 372.711 115.777, 366.500 117.020 M 406.750 131.706 C 407.988 131.944, 410.012 131.944, 411.250 131.706 C 412.488 131.467, 411.475 131.272, 409 131.272 C 406.525 131.272, 405.512 131.467, 406.750 131.706 M 334.286 158.500 C 334.294 161.250, 334.488 162.256, 334.718 160.736 C 334.947 159.216, 334.941 156.966, 334.704 155.736 C 334.467 154.506, 334.279 155.750, 334.286 158.500 M 250.296 156.760 C 246.573 158.572, 245.471 160.657, 247.160 162.693 C 249.005 164.915, 253.606 167, 256.667 167 C 260.039 167, 268 164.071, 268 162.831 C 268 162.337, 266.494 160.427, 264.653 158.587 C 260.806 154.739, 255.766 154.098, 250.296 156.760 M 399.909 158.245 C 396.183 161.971, 396.478 163.954, 401 165.585 C 408.007 168.113, 415.570 166.540, 417.969 162.057 C 419.523 159.153, 413.986 155.546, 407.708 155.371 C 403.620 155.258, 402.473 155.681, 399.909 158.245 M 265.445 166.142 C 263.765 166.590, 261.451 167.979, 260.303 169.228 C 257.212 172.594, 252.705 181.790, 253.339 183.440 C 254.029 185.240, 260.154 186.987, 265.800 186.994 C 272.062 187.003, 275.776 184.688, 278.064 179.351 C 281.577 171.156, 281.540 170.630, 277.305 168.588 C 271.553 165.814, 268.804 165.247, 265.445 166.142 M 394 165.733 C 393.175 165.967, 391.825 166.421, 391 166.743 C 390.175 167.064, 389.275 167.385, 389 167.456 C 388.725 167.526, 387.046 168.359, 385.270 169.308 L 382.039 171.031 384.520 176.640 C 385.884 179.725, 387 182.409, 387 182.604 C 387 183.899, 395.685 187, 399.311 187 C 403.482 187, 409.638 185.489, 411.243 184.071 C 412.446 183.008, 405.354 169.260, 402.936 167.966 C 399.715 166.242, 395.723 165.245, 394 165.733 M 256.750 220.706 C 257.988 220.944, 260.012 220.944, 261.250 220.706 C 262.488 220.467, 261.475 220.272, 259 220.272 C 256.525 220.272, 255.512 220.467, 256.750 220.706 M 396.768 220.725 C 398.565 220.947, 401.265 220.943, 402.768 220.715 C 404.271 220.486, 402.800 220.304, 399.500 220.310 C 396.200 220.315, 394.971 220.502, 396.768 220.725 M 200.302 232.746 C 205.693 232.926, 214.243 232.925, 219.302 232.744 C 224.361 232.563, 219.950 232.416, 209.500 232.417 C 199.050 232.418, 194.911 232.566, 200.302 232.746 M 447.250 232.746 C 452.613 232.925, 461.387 232.925, 466.750 232.746 C 472.113 232.566, 467.725 232.419, 457 232.419 C 446.275 232.419, 441.887 232.566, 447.250 232.746 M 277.776 248.733 C 280.128 248.945, 283.728 248.942, 285.776 248.727 C 287.824 248.512, 285.900 248.339, 281.500 248.343 C 277.100 248.346, 275.424 248.522, 277.776 248.733 M 300.250 248.728 C 302.313 248.944, 305.688 248.944, 307.750 248.728 C 309.813 248.513, 308.125 248.336, 304 248.336 C 299.875 248.336, 298.188 248.513, 300.250 248.728 M 449.776 248.733 C 452.128 248.945, 455.728 248.942, 457.776 248.727 C 459.824 248.512, 457.900 248.339, 453.500 248.343 C 449.100 248.346, 447.424 248.522, 449.776 248.733 M 416.374 259.500 C 416.376 265.550, 416.541 267.896, 416.740 264.713 C 416.939 261.531, 416.937 256.581, 416.736 253.713 C 416.535 250.846, 416.372 253.450, 416.374 259.500 M 437.378 260 C 437.378 266.325, 437.541 268.913, 437.739 265.750 C 437.937 262.587, 437.937 257.413, 437.739 254.250 C 437.541 251.088, 437.378 253.675, 437.378 260 M 403.300 255 C 403.300 258.025, 403.487 259.262, 403.716 257.750 C 403.945 256.238, 403.945 253.762, 403.716 252.250 C 403.487 250.738, 403.300 251.975, 403.300 255 M 283.336 263 C 283.336 267.125, 283.513 268.813, 283.728 266.750 C 283.944 264.688, 283.944 261.313, 283.728 259.250 C 283.513 257.188, 283.336 258.875, 283.336 263 M 313 269.833 C 313 270.612, 310.254 271.067, 304.750 271.201 L 296.500 271.402 304.405 271.746 C 311.716 272.064, 315.436 271.103, 313.683 269.350 C 313.308 268.974, 313 269.192, 313 269.833 M 186.768 271.725 C 188.565 271.947, 191.265 271.943, 192.768 271.715 C 194.271 271.486, 192.800 271.304, 189.500 271.310 C 186.200 271.315, 184.971 271.502, 186.768 271.725 M 449.776 271.733 C 452.128 271.945, 455.728 271.942, 457.776 271.727 C 459.824 271.512, 457.900 271.339, 453.500 271.343 C 449.100 271.346, 447.424 271.522, 449.776 271.733 M 182.872 288.500 C 182.202 290.952, 182.862 293.203, 184.038 292.476 C 184.515 292.182, 206.864 291.958, 233.703 291.979 C 279.906 292.016, 282.580 292.117, 284 293.864 C 287.559 298.243, 293 297.076, 293 291.933 C 293 288.103, 289.753 286.601, 285.820 288.610 C 283.675 289.706, 274.075 289.997, 237.820 290.068 C 179.430 290.182, 184.218 290.343, 183.783 288.250 C 183.465 286.720, 183.350 286.752, 182.872 288.500 M 304 289 C 301.525 291.475, 301.513 292.178, 303.895 295.119 C 305.525 297.131, 306.191 297.320, 308.645 296.461 C 313.678 294.702, 312.590 287, 307.309 287 C 306.589 287, 305.100 287.900, 304 289 M 323.551 288.592 C 321 291.143, 321.945 295.269, 325.355 296.461 C 327.809 297.320, 328.475 297.131, 330.105 295.119 C 332.341 292.357, 332.398 291.888, 330.750 289.792 C 328.768 287.270, 325.429 286.714, 323.551 288.592 M 342 289 C 340.900 290.100, 340 291.450, 340 292 C 340 293.330, 343.718 297, 345.066 297 C 347.809 297, 350 294.780, 350 292 C 350 290.127, 349.302 288.697, 348.066 288.035 C 345.318 286.565, 344.269 286.731, 342 289 M 360.607 289.582 C 359.276 293.051, 360.312 295.360, 363.670 296.407 C 365.267 296.905, 366.470 296.405, 368.221 294.518 L 370.601 291.951 427.128 291.966 C 458.218 291.974, 485.008 292.252, 486.661 292.582 C 488.995 293.049, 489.667 292.828, 489.667 291.592 C 489.667 290.146, 488.720 289.581, 486.784 289.870 C 486.391 289.929, 459.620 289.995, 427.294 290.016 C 387.907 290.043, 368.405 289.716, 368.176 289.028 C 367.612 287.337, 361.291 287.799, 360.607 289.582" stroke="none" fill="#47a9ba" fill-rule="evenodd"/><path d="M 314.194 80.271 C 312.096 82.811, 311.758 88.688, 313.499 92.357 C 316.303 98.265, 317.758 98.822, 319.500 94.654 C 322.156 88.298, 321.150 82.221, 317.082 80.044 C 315.757 79.335, 314.913 79.401, 314.194 80.271 M 347.400 80.765 C 343.929 83.083, 343.137 88.998, 345.529 94.725 L 347.059 98.385 349.144 96.300 C 354.253 91.192, 352.685 77.236, 347.400 80.765 M 329.597 85.593 C 320.082 95.559, 316.049 108.433, 319.053 119.250 C 319.625 121.313, 320.523 123, 321.047 123 C 321.571 123, 322 123.595, 322 124.322 C 322 125.049, 323.856 127.187, 326.124 129.072 L 330.249 132.500 329.731 151.343 C 329.408 163.107, 328.798 170.602, 328.107 171.293 C 327.298 172.102, 327 172.046, 327 171.085 C 327 168.982, 320.178 155, 319.152 155 C 318.230 155, 316.900 152.458, 310.318 138.118 C 308.455 134.058, 306.718 130.949, 306.459 131.208 C 306.199 131.467, 308.465 137.137, 311.494 143.808 C 314.522 150.478, 317 156.316, 317 156.780 C 317 157.245, 317.837 159.396, 318.860 161.562 C 320.691 165.436, 322.363 172, 321.519 172 C 321.282 172, 318.706 170.579, 315.794 168.843 C 312.882 167.106, 308.521 164.964, 306.102 164.081 C 302.124 162.631, 301.568 162.014, 300.290 157.630 C 298.443 151.299, 295.497 146.914, 291.078 143.922 C 287.903 141.773, 286.429 141.503, 278 141.530 C 267.363 141.564, 260 143.237, 260 145.619 C 260 147.562, 266.351 157.434, 270.421 161.816 C 275.042 166.792, 279.427 168.503, 287.500 168.480 C 292.398 168.467, 295.257 167.951, 297.022 166.765 C 299.456 165.128, 299.723 165.171, 304.677 168.001 C 313.762 173.189, 320 182.763, 320 191.518 C 320 205.500, 305.907 213.360, 278.762 214.519 C 251.753 215.672, 242.833 217.589, 236.645 223.570 C 231.509 228.535, 228.759 229, 204.517 229 C 192.316 229, 182.064 229.269, 181.736 229.598 C 181.407 229.927, 181.337 230.716, 181.581 231.351 C 181.903 232.188, 188.021 232.433, 203.762 232.239 C 231.707 231.893, 232.615 231.759, 239.309 226.965 C 246.235 222.006, 253.812 220, 265.624 220 L 274.827 220 269.464 225.582 C 264.342 230.913, 260.967 237.361, 262.537 238.817 C 262.942 239.193, 263.465 238.967, 263.699 238.315 C 263.932 237.663, 265.543 235.188, 267.278 232.815 C 269.913 229.211, 270.489 228.830, 270.773 230.500 C 271.434 234.393, 273.260 238, 274.570 238 C 275.638 238, 275.600 237.288, 274.376 234.358 C 272.421 229.679, 273.277 226.425, 276.965 224.518 C 279.914 222.993, 281.928 222.516, 298.500 219.417 C 306.598 217.903, 312.624 215.830, 314 214.087 C 314.671 213.237, 319.791 210, 320.465 210 C 320.759 210, 321 211.334, 321 212.965 C 321 217.945, 316.216 222.298, 307.798 224.978 C 296.175 228.679, 295.240 229.077, 293.412 231.098 C 290.838 233.942, 292.121 234.243, 296.923 231.923 C 301.862 229.537, 303.686 229.903, 304.579 233.457 C 304.930 234.856, 305.896 236, 306.725 236 C 308.211 236, 308.160 234.766, 306.506 230.750 C 305.967 229.440, 306.270 229, 307.712 229 C 312.630 229, 320.606 225.637, 323.853 222.194 C 327.081 218.772, 327.302 218.693, 328.619 220.494 C 329.402 221.565, 330 224.793, 330 227.952 C 330 232.924, 329.678 233.788, 326.998 236.002 C 323.202 239.137, 321.607 243.895, 322.455 249.552 C 323.456 256.224, 325 255.993, 325 249.172 C 325 243.328, 325.095 243.125, 330.515 237.440 L 336.030 231.654 338.801 234.309 C 341.247 236.653, 348 239.147, 348 237.707 C 348 237.408, 346.472 236.218, 344.603 235.064 C 339.093 231.658, 335.902 225.340, 338.005 222 C 338.801 220.737, 339.350 220.929, 341.481 223.213 C 344.024 225.938, 352.141 228.987, 356.932 229.015 C 358.344 229.024, 360.139 229.435, 360.921 229.930 C 362.132 230.696, 362.095 231.206, 360.671 233.379 C 358.622 236.507, 358.595 237, 360.474 237 C 361.285 237, 362.647 235.650, 363.500 234 C 364.353 232.350, 365.468 231, 365.978 231 C 366.487 231, 368.503 232.647, 370.458 234.660 C 374.360 238.678, 375.590 238.683, 374.067 234.676 C 372.778 231.287, 366.894 227.643, 360 225.964 C 352.998 224.260, 345.432 220.569, 344.625 218.465 C 343.868 216.492, 343.791 210, 344.524 210 C 344.812 210, 347.299 211.548, 350.051 213.441 C 355.990 217.527, 355.186 217.262, 371.250 220.422 C 378.262 221.801, 384.890 223.406, 385.977 223.988 C 389.244 225.736, 390.076 228.300, 388.415 231.501 C 386.523 235.149, 388.132 237.078, 390.384 233.862 C 391.273 232.593, 392 230.980, 392 230.277 C 392 227.168, 396.088 230.662, 399.571 236.750 C 401.404 239.953, 403 240.985, 403 238.968 C 403 236.083, 399.662 230.743, 394.649 225.608 L 389.054 219.878 397.305 220.076 C 412.156 220.433, 416.332 221.417, 425.269 226.666 L 433.500 231.500 447.250 231.750 C 492.208 232.567, 489.001 232.644, 489.001 230.750 C 489 229.130, 487.127 228.999, 463.750 228.990 C 439.079 228.981, 438.380 228.924, 433.250 226.536 C 430.363 225.192, 428 223.724, 428 223.273 C 428 222.202, 422.686 219.498, 416.875 217.611 C 412.560 216.209, 405.899 215.597, 383.500 214.543 C 374.366 214.114, 361.439 211.313, 356.283 208.646 C 352.363 206.619, 346.616 201.005, 345.384 198 C 343.654 193.779, 343.726 186.379, 345.535 182.568 C 346.458 180.622, 350.063 176.364, 353.544 173.108 C 360.229 166.854, 364.920 164.858, 367.635 167.112 C 369.754 168.871, 381.364 169.171, 385.182 167.566 C 389.104 165.916, 398 158.306, 398 156.600 C 398 155.890, 398.903 154.493, 400.006 153.494 C 401.110 152.496, 401.806 151.473, 401.554 151.220 C 401.302 150.968, 401.749 150.108, 402.548 149.310 C 407.218 144.639, 400.366 141.500, 385.500 141.500 C 377.097 141.500, 376.222 141.699, 372.312 144.500 C 367.547 147.913, 363.800 154.517, 363.800 159.502 C 363.800 162.479, 363.424 162.968, 360.669 163.573 C 357.630 164.240, 345.774 170.119, 343.250 172.209 C 342.500 172.831, 342 172.860, 342 172.282 C 342 170.948, 348.006 153.729, 348.901 152.500 C 349.301 151.950, 350.911 148.350, 352.478 144.500 C 354.045 140.650, 355.678 137.035, 356.106 136.467 C 357.271 134.921, 359.030 130, 358.417 130 C 358.123 130, 355.483 135.107, 352.550 141.349 C 349.617 147.591, 345.594 154.825, 343.609 157.425 C 341.624 160.026, 340 162.969, 340 163.966 C 340 166.295, 336.420 170.747, 335.380 169.710 C 334.944 169.276, 334.402 160.700, 334.176 150.652 L 333.764 132.384 338.795 128.172 C 346.330 121.863, 348.755 113.224, 345.544 104.126 C 344.744 101.857, 344.303 100, 344.565 100 C 345.708 100, 340.702 92.076, 336.725 87.593 L 332.372 82.686 329.597 85.593 M 275.583 101.865 C 274.904 102.964, 276.468 109.175, 278.069 111.739 C 279.442 113.938, 284.820 116.513, 285.862 115.471 C 287.334 113.999, 286.229 107.872, 284.077 105.582 C 281.589 102.933, 276.342 100.637, 275.583 101.865 M 381.760 105.250 C 379.137 107.771, 378.391 109.286, 378.439 112 C 378.493 115.127, 378.766 115.470, 381 115.222 C 384.608 114.821, 388.957 110.039, 389.661 105.700 C 390.223 102.241, 390.095 102, 387.702 102 C 386.175 102, 383.778 103.311, 381.760 105.250 M 253.750 131.728 C 249.151 132.210, 248.932 133.924, 253.029 137.371 C 256.600 140.376, 261.939 141.597, 266.164 140.374 L 269.187 139.500 266.926 136.629 C 265.063 134.264, 258.832 130.543, 257.782 131.168 C 257.627 131.261, 255.813 131.513, 253.750 131.728 M 400.775 133.559 C 398.406 134.845, 396 137.782, 396 139.389 C 396 140.316, 402.920 141.238, 405.243 140.621 C 407.931 139.907, 414 134.707, 414 133.118 C 414 131.467, 404.016 131.800, 400.775 133.559 M 246.250 144.612 C 244.440 145.415, 244.689 146.373, 247.501 149.406 C 251.845 154.094, 259.207 155.272, 259.792 151.373 C 260.412 147.232, 250.969 142.517, 246.250 144.612 M 406.780 146.838 C 401.340 151.416, 404.334 155.173, 411.510 152.772 C 415.299 151.503, 419.983 146.650, 418.678 145.344 C 418.299 144.966, 416.093 144.621, 413.775 144.578 C 410.736 144.521, 408.785 145.152, 406.780 146.838 M 162.595 249.527 C 157.237 252.322, 155.354 257.077, 157.101 263.404 C 159.168 270.891, 168.699 274.048, 175.594 269.530 C 178.041 267.927, 178.084 267.750, 176.463 265.959 C 174.881 264.211, 174.540 264.187, 171.771 265.618 C 164.690 269.280, 159.352 262.091, 163.924 255.050 C 164.805 253.694, 167.405 253.479, 173.969 254.221 C 178.104 254.688, 177.843 251.250, 173.609 249.481 C 169.119 247.605, 166.258 247.617, 162.595 249.527 M 183.402 248.751 C 182.139 249.613, 181.554 262.104, 182.532 267.320 L 183.192 270.838 189.617 271.169 C 197.329 271.566, 198 271.386, 198 268.917 C 198 267.285, 197.261 267, 193.038 267 L 188.075 267 187.788 257.761 C 187.561 250.487, 187.181 248.468, 186 248.263 C 185.175 248.120, 184.006 248.339, 183.402 248.751 M 204.250 248.667 C 203.411 249.002, 203.004 251.525, 203.011 256.333 C 203.027 267.037, 203.879 271, 206.164 271 C 207.936 271, 208.046 270.240, 207.783 259.831 C 207.509 249.032, 207.040 247.550, 204.250 248.667 M 218.576 249.187 C 218.351 249.909, 217.882 252.975, 217.534 256 C 217.186 259.025, 216.544 263.637, 216.109 266.250 C 215.362 270.731, 215.443 271, 217.542 271 C 219.825 271, 220.959 268.778, 220.986 264.250 C 221.007 260.812, 222.260 261.542, 224.907 266.531 C 226.230 269.024, 227.787 270.904, 228.369 270.710 C 228.951 270.516, 230.495 268.216, 231.800 265.599 C 234.291 260.605, 235.093 260.341, 235.535 264.368 C 236.037 268.946, 237.128 271, 239.055 271 C 240.744 271, 240.918 270.431, 240.502 266.250 C 239.159 252.735, 238.276 248, 237.097 248 C 236.621 248, 234.472 251.371, 232.322 255.491 L 228.412 262.983 224.648 256.015 C 220.668 248.645, 219.244 247.045, 218.576 249.187 M 254.603 253.264 C 253.010 256.144, 250.441 261.313, 248.895 264.750 L 246.084 271 248.925 271 C 250.926 271, 251.922 270.408, 252.290 269 C 252.724 267.338, 253.654 267, 257.790 267 C 261.926 267, 262.855 267.338, 263.290 269 C 263.643 270.351, 264.654 271, 266.406 271 C 270.185 271, 270.177 270.968, 262.418 256 C 261.706 254.625, 260.656 252.262, 260.086 250.750 C 259.516 249.238, 258.701 248.006, 258.275 248.014 C 257.849 248.022, 256.196 250.385, 254.603 253.264 M 271.698 248.636 C 271.314 249.019, 271 250.158, 271 251.167 C 271 252.591, 271.772 253, 274.461 253 L 277.922 253 278.211 261.750 C 278.482 269.961, 278.639 270.520, 280.750 270.820 C 282.941 271.131, 283 270.903, 283 262.070 L 283 253 287 253 C 290.333 253, 291 252.667, 291 251 C 291 249.168, 290.333 249, 283.082 249 C 278.727 249, 274.541 248.761, 273.780 248.469 C 273.018 248.177, 272.082 248.252, 271.698 248.636 M 303.750 248.792 L 296 249.084 296 260.042 L 296 271 304.500 271 C 309.500 271, 313 270.588, 313 270 C 313 269.450, 313.009 268.663, 313.019 268.250 C 313.029 267.837, 310.442 267.275, 307.269 267 C 302.228 266.563, 301.460 266.216, 301.180 264.250 C 300.882 262.148, 301.227 262, 306.430 262 C 311.705 262, 312 261.867, 312 259.500 C 312 257.136, 311.700 257, 306.500 257 C 301.667 257, 301 256.758, 301 255 C 301 253.222, 301.667 253, 307 253 C 312.273 253, 313 252.765, 313 251.059 C 313 248.505, 312.782 248.452, 303.750 248.792 M 339.270 249.471 C 335.752 251.013, 332.010 256.244, 332.004 259.628 C 331.997 263.389, 334.792 268.584, 337.481 269.809 C 340.801 271.322, 346.169 271.336, 349.453 269.839 C 352.247 268.566, 352.406 268.191, 351.056 266.057 C 350.312 264.880, 349.660 264.834, 347.525 265.807 C 343.682 267.558, 341.612 267.280, 339.174 264.686 C 336.354 261.683, 336.409 257.904, 339.314 255.174 C 341.839 252.802, 344.111 252.454, 346.993 253.996 C 349.223 255.190, 352 254.320, 352 252.428 C 352 249.330, 343.889 247.446, 339.270 249.471 M 362.912 250.280 C 358.484 253.264, 356.815 256.603, 357.379 261.348 C 358.271 268.858, 366.254 273.463, 373.286 270.525 C 383.207 266.380, 383.513 253.423, 373.781 249.529 C 368.645 247.474, 366.897 247.595, 362.912 250.280 M 387.452 249.263 C 387.161 250.022, 387.053 255.110, 387.212 260.571 L 387.500 270.500 390.201 270.812 C 392.850 271.117, 392.907 271.005, 393.201 264.958 L 393.500 258.794 400.153 264.897 C 403.813 268.254, 407.075 271, 407.403 271 C 408.383 271, 408.078 249.166, 407.090 248.556 C 404.647 247.046, 403.507 249.135, 403.843 254.509 C 404.031 257.529, 403.794 260, 403.315 260 C 402.051 260, 397.696 256.870, 396.307 254.962 C 395.650 254.061, 393.509 252.100, 391.548 250.604 C 388.826 248.528, 387.856 248.211, 387.452 249.263 M 417 259.415 C 417 270.956, 417.035 271.134, 419.220 270.820 C 421.234 270.530, 421.430 269.965, 421.335 264.738 C 421.278 261.568, 421.551 258.778, 421.942 258.536 C 422.333 258.294, 425.531 261, 429.048 264.548 C 432.565 268.097, 435.793 271, 436.221 271 C 436.650 271, 437 266.098, 437 260.107 C 437 250.861, 436.748 249.117, 435.333 248.574 C 432.696 247.562, 431.766 249.409, 432.147 254.904 C 432.341 257.707, 432.143 260.001, 431.707 260.001 C 431.271 260, 428.796 258.084, 426.207 255.741 C 423.618 253.399, 420.488 250.629, 419.250 249.586 L 417 247.690 417 259.415 M 475.502 249.562 C 473.853 250.429, 471.768 251.805, 470.867 252.620 C 466.704 256.388, 468.029 266.929, 472.987 269.493 C 477.024 271.581, 484.243 271.433, 486.992 269.208 C 489.015 267.570, 489.065 267.299, 487.573 266.061 C 486.294 264.999, 485.396 264.954, 483.423 265.853 C 479.438 267.669, 477.291 267.217, 475.068 264.096 C 472.401 260.351, 472.462 258.737, 475.399 255.322 C 477.703 252.644, 477.971 252.580, 482.149 253.707 C 485.657 254.653, 486.765 254.621, 487.866 253.539 C 489.017 252.408, 488.859 251.962, 486.866 250.697 C 483.002 248.246, 478.802 247.827, 475.502 249.562 M 445.216 259.750 L 445.500 270.500 453.750 270.790 C 461.418 271.060, 462 270.940, 462 269.090 C 462 267.369, 461.224 267.059, 456.250 266.800 C 451.156 266.534, 450.464 266.243, 450.180 264.250 C 449.885 262.171, 450.245 262, 454.930 262 C 459.671 262, 460 261.838, 460 259.500 C 460 257.167, 459.667 257, 455 257 C 450.667 257, 450 256.733, 450 255 C 450 253.222, 450.667 253, 456 253 C 461.333 253, 462 252.778, 462 251 C 462 249.156, 461.333 249, 453.466 249 L 444.932 249 445.216 259.750 M 493 251 C 493 252.550, 493.667 253, 495.961 253 L 498.922 253 499.211 261.750 C 499.482 269.961, 499.639 270.520, 501.750 270.820 C 503.941 271.131, 504 270.903, 504 262.070 L 504 253 507.500 253 C 510.333 253, 511 252.619, 511 251 C 511 249.148, 510.333 249, 502 249 C 493.667 249, 493 249.148, 493 251 M 363.989 256.250 C 361.505 260.325, 361.513 261.111, 364.073 264.365 C 365.447 266.112, 367.107 267, 369 267 C 372.089 267, 376 263.089, 376 260 C 376 256.863, 372.089 253, 368.913 253 C 366.667 253, 365.502 253.769, 363.989 256.250 M 256.670 260.417 C 256.371 261.197, 256.729 262.066, 257.465 262.348 C 259.200 263.014, 260.003 262.172, 259.324 260.402 C 258.632 258.599, 257.365 258.606, 256.670 260.417 M 181 288.441 C 181 290.884, 181.450 293.160, 182 293.500 C 182.550 293.840, 183.026 293.529, 183.058 292.809 C 183.089 292.089, 183.293 289.813, 183.510 287.750 C 183.804 284.957, 183.534 284, 182.452 284 C 181.401 284, 181 285.225, 181 288.441" stroke="none" fill="#164451" fill-rule="evenodd"/></svg>